<svg xmlns="http://www.w3.org/2000/svg" viewBox="0 0 73.39 47"><g id="Capa_2" data-name="Capa 2"><g id="Capa_1-2" data-name="Capa 1"><path d="M37,42.83c.3-.56.91,0,1.39.17a8.9,8.9,0,0,0,2.16,1.39c.67.85,2.13,1.12,3.24,1.52,0,.38.86.63,1.16.75.46.86,1.68-.08,1.29-.83a5.63,5.63,0,0,0-2.84-2.64c-.58.12-1,.31-1.33-.31-.33-.24-.57-.28-.89-.54-.64-.44-1.63-.72-2.06-1.34,0-.42-.26-1.24.46-.82,1.11.92,2.68,1.23,3.76,2.08,2.37.16.91-2.16-.75-2.22,0-.15,0-.29-.24-.28C42,38,43.8,39.53,44.67,39c1.5-1-.51-2-1.64-2.12.13-.44-1.32-.65-1.58-.91a21.19,21.19,0,0,0-2.92-1.37c.51-.13,1.24.38,1.55-.16.91.69,2.35.75,3.36,1.27.7,0,1.26-1.12.54-1.61a8.09,8.09,0,0,0-2.39-.79.87.87,0,0,0-.47-.89c2.28.85,4.6-.9,1.31-1.49,1.49,0,2.7.77,4.2.82.4.89,2.16-.13,1.46-1s-2.32-.57-1.7-2.07c1.49.5,2.32-.53,3.78,0,.5,1,1.81.22,2.83.61,2.27-.74,4.12,4.94,4.83,1.6-1.64-2.36,1.74,2.16,2.31.64.45.1.66-1,.15-.8,0-.46.69,0,.64-.53A.66.66,0,0,0,61.22,29c1.59-.28.87-1.67.17-2.59,2.51.28,5.23.65,7.53.15,4.1-3.25,7.69-5.51-.27-4.91,2.59-2.81-14.2-.81-15.38-1.17,0-.09-.13-.47-.1-.52-.09-.28,0-.53.36-.36,0-.65-.74-1-1.2-1.19,1.39-.32,2.6-.31,4-.59,2.55,0,2.46-1.11,1.51-3.1.82,0,2.69-.11,2.26-1.41-.75-1-2.89-.75-4-1.13C55,12.6,54.2,14,52.87,13.85c-1,.23-1.94.36-3,.57-.46.14-1,.1-1.41.25-.51,0-.78.44-1.32.45-2.46.48-4.87,1-7.31,1.23-1.84.37-3.87,1.09-5.69.49.59-.93,2.16-.59,2.68-1.38.47,0,.74-.92.2-1.11.37-.32,1-.94.49-1.37l0,0c-.14-.46-1.37-.57-1.69-.19-.65-1.38-3.38.44-5-.45C37,8.46,30.67,8.66,27.06,8c.68-1.12,1.06-1.82,2.41-1.85,1.07-1.68-1.47-1.32-2.4-1.93,0-1.26,1.84-2.29,2.05-3.47-.32-.41-.31-1-.93-.52C25.4,3.08,21-.68,18.53,3c-.07,1.75-1.23,3.53-3.34,3-.74-.31-1.26.41-2,.32-.22-.43-.34-.29-.7-.12-1.37.62-2.66,1.59-4,2.17.36-5.12-4.09,5-4.7,5.64-1.58,2.17-.26-1.76-1.74-.55C1,13.83,2,15.18,1.59,16.05c1.39.2.13,1.19-.29,1.81-1.76.69-1.28.91-1.11,2.38-.48.9.38,1.24.81,1.88.38.27-.11,1.45.53,1.49,1.15-.2.72,1.24,1.31,1.53-.11.77,1.17.35,1-.32s.78-2.48.23-2.9l.12-.63c.91-.05.78-2.12,1.54-2.69,1.92-2.25,4.7-3.86,7.41-3.27,3.47,1.58,3,2.68,4.21,6-.08,1.14,1.14.8,1.31,1.83-.8.63-.73-.86-1.7.38a21.73,21.73,0,0,1-3.45,5.48c-2.44,1.7-5.06,2.07-7.48.44-.49-.36-3.35-1.67-2.28-2.34,1.34-1.94-1.38-1.63-2.1-.62.22.91.59,1.85.83,2.65-.35.91.58,6.12,2,4.47,1.5,1.73,1.81-.92.44-1.91a.3.3,0,0,0,.41-.2c.42.2.1.72.5.8a22,22,0,0,0,2,2.85c.08.4.57.25.85.34.09.33.64.55,1,.66.33.74.64,3.07,1.76,2-.33,2,1.56.38,2.42.44.48.19.6.75,1.16.78-.14.27.32.41.46.57.21.37.43.4.72,0,1.1-2.66,4.84.5,6.47-1.12,2-.38-2.27-3.3-.67-3.28,1.12.12,1.14-1.12.88-1.79,1.49.64,3.12.56,4.14,1.86.23,0,.21.2.24.3.39.1.84.26.95.69,1.48.52,2.35,1.87,3.75,2.5Zm-33-24.78c-.21.62-.78.33-1.23.72-1.11,1.29,0,1.19.71,1.85-.54.42,0,.63,0,1.11-.23,0-.31.2-.39.41-1.52-1.75-1.67-1.31-.75-3.45.92-.71,1.1-2.62,2.28-2.92A2.18,2.18,0,0,0,3.94,18.05ZM16.73,34.16h0a.46.46,0,0,1,.66,0l.26.26a.57.57,0,0,1,.12.18l.79,2.28-1-1.58a.55.55,0,0,0-.2-.17l-1-.48h0L15.09,34l1.18.32A.49.49,0,0,0,16.73,34.16ZM34,28.7l.23.32,4.26,1.88-2.73-.44-.21-.29-1.74-1-1.17-.11-.49-.33-2.58-.9ZM56.51,16.2c-.72-1.28-2.67.21-4-.19,1.16-.77,2.52-.63,3.72-.88a4.81,4.81,0,0,1,.61,1.14C56.68,16.31,56.58,16.36,56.51,16.2Zm-22.62-2c.19.2,0,.62.34.68-2.17.89-4.59,1.18-6.8,1.85C27.76,15.28,32.54,13.59,33.89,14.19Zm-26.44-1c.06,1-1.31,1-2.07.8.16-1.27,1.2-1.15,2.07-1.45C7.43,12.8,7.25,13,7.45,13.19Zm21.2-2.84c-1,.45-1.71,1.6-2.89,1.35A2.19,2.19,0,0,1,28.65,10.35ZM10.46,9.68c-.81-.15-.58.37-1.21.64-.94.25-.24-.74.23-.81.55-.29,1.08-.09,1.63-.35C11.12,9.24,10.45,9.56,10.46,9.68Zm10.6-4a1.26,1.26,0,0,0,.32.23C19.45,9.6,19.64,5.11,21.06,5.66ZM26,3.09c-.38.55-.72.79-1.24.21-.35-.06-.77,0-.92-.43Zm-3.63-.24c-.1.68-.85.88-1.43.77C20.42,2.52,21.63,2.78,22.32,2.85Z"/></g></g></svg>